<svg width="42" height="32" viewBox="0 0 42 32" fill="none" xmlns="http://www.w3.org/2000/svg">
<path d="M5.26 9.335C5.26 10.245 5.085 10.995 4.735 11.585C4.385 12.185 3.94 12.65 3.4 12.98C2.87 13.31 2.245 13.595 1.525 13.835L0.7 11.66C1.13 11.5 1.45 11.305 1.66 11.075C1.87 10.855 2.005 10.605 2.065 10.325C2.135 10.035 2.17 9.67 2.17 9.23V0.559998H5.26V9.335Z" fill="black"/>
<path d="M10.2579 2.69C11.5379 2.69 12.5429 3.065 13.2729 3.815C14.0129 4.565 14.3829 5.63 14.3829 7.01C14.3829 7.87 14.2129 8.625 13.8729 9.275C13.5429 9.925 13.0679 10.425 12.4479 10.775C11.8279 11.125 11.0979 11.3 10.2579 11.3C8.97793 11.3 7.96793 10.925 7.22793 10.175C6.49793 9.425 6.13293 8.36 6.13293 6.98C6.13293 6.12 6.29793 5.365 6.62793 4.715C6.96793 4.065 7.44793 3.565 8.06793 3.215C8.68793 2.865 9.41793 2.69 10.2579 2.69ZM10.2579 4.82C9.87793 4.82 9.60293 4.99 9.43293 5.33C9.26293 5.67 9.17793 6.22 9.17793 6.98C9.17793 7.77 9.26293 8.335 9.43293 8.675C9.60293 9.005 9.87793 9.17 10.2579 9.17C10.6379 9.17 10.9129 9 11.0829 8.66C11.2529 8.32 11.3379 7.77 11.3379 7.01C11.3379 6.22 11.2529 5.66 11.0829 5.33C10.9129 4.99 10.6379 4.82 10.2579 4.82Z" fill="black"/>
<path d="M19.0177 2.69C20.2977 2.69 21.3027 3.065 22.0327 3.815C22.7727 4.565 23.1427 5.63 23.1427 7.01C23.1427 7.87 22.9727 8.625 22.6327 9.275C22.3027 9.925 21.8277 10.425 21.2077 10.775C20.5877 11.125 19.8577 11.3 19.0177 11.3C17.7377 11.3 16.7277 10.925 15.9877 10.175C15.2577 9.425 14.8927 8.36 14.8927 6.98C14.8927 6.12 15.0577 5.365 15.3877 4.715C15.7277 4.065 16.2077 3.565 16.8277 3.215C17.4477 2.865 18.1777 2.69 19.0177 2.69ZM19.0177 4.82C18.6377 4.82 18.3627 4.99 18.1927 5.33C18.0227 5.67 17.9377 6.22 17.9377 6.98C17.9377 7.77 18.0227 8.335 18.1927 8.675C18.3627 9.005 18.6377 9.17 19.0177 9.17C19.3977 9.17 19.6727 9 19.8427 8.66C20.0127 8.32 20.0977 7.77 20.0977 7.01C20.0977 6.22 20.0127 5.66 19.8427 5.33C19.6727 4.99 19.3977 4.82 19.0177 4.82Z" fill="black"/>
<path d="M10.06 20.56L7.42 31H3.43L0.625 20.56H3.88L5.47 28.855L6.895 20.56H10.06Z" fill="black"/>
<path d="M13.2865 22.99V31H10.3165V22.99H13.2865ZM11.8015 18.565C12.2815 18.565 12.6765 18.72 12.9865 19.03C13.3065 19.33 13.4665 19.705 13.4665 20.155C13.4665 20.605 13.3065 20.985 12.9865 21.295C12.6765 21.595 12.2815 21.745 11.8015 21.745C11.3215 21.745 10.9215 21.595 10.6015 21.295C10.2915 20.985 10.1365 20.605 10.1365 20.155C10.1365 19.705 10.2915 19.33 10.6015 19.03C10.9215 18.72 11.3215 18.565 11.8015 18.565Z" fill="black"/>
<path d="M18.3449 22.69C19.4849 22.69 20.4549 23.045 21.2549 23.755L20.0249 25.48C19.5649 25.11 19.0949 24.925 18.6149 24.925C18.1549 24.925 17.8149 25.085 17.5949 25.405C17.3749 25.725 17.2649 26.275 17.2649 27.055C17.2649 27.805 17.3749 28.32 17.5949 28.6C17.8249 28.87 18.1549 29.005 18.5849 29.005C18.8149 29.005 19.0299 28.97 19.2299 28.9C19.4299 28.82 19.6799 28.685 19.9799 28.495L21.2549 30.31C20.4449 30.97 19.4999 31.3 18.4199 31.3C17.5499 31.3 16.7949 31.125 16.1549 30.775C15.5149 30.415 15.0249 29.915 14.6849 29.275C14.3449 28.625 14.1749 27.885 14.1749 27.055C14.1749 26.215 14.3449 25.465 14.6849 24.805C15.0349 24.145 15.5249 23.63 16.1549 23.26C16.7849 22.88 17.5149 22.69 18.3449 22.69Z" fill="black"/>
<path d="M27.3377 30.61C27.0277 30.83 26.6477 31 26.1977 31.12C25.7577 31.24 25.3377 31.3 24.9377 31.3C23.9477 31.29 23.2127 31.015 22.7327 30.475C22.2627 29.925 22.0277 29.115 22.0277 28.045V25H21.0677V22.99H22.0277V21.31L24.9977 20.965V22.99H26.7977L26.4977 25H24.9977V28.015C24.9977 28.365 25.0527 28.615 25.1627 28.765C25.2727 28.905 25.4277 28.975 25.6277 28.975C25.8777 28.975 26.1277 28.905 26.3777 28.765L27.3377 30.61Z" fill="black"/>
<path d="M31.2052 22.69C32.4852 22.69 33.4902 23.065 34.2202 23.815C34.9602 24.565 35.3302 25.63 35.3302 27.01C35.3302 27.87 35.1602 28.625 34.8202 29.275C34.4902 29.925 34.0152 30.425 33.3952 30.775C32.7752 31.125 32.0452 31.3 31.2052 31.3C29.9252 31.3 28.9152 30.925 28.1752 30.175C27.4452 29.425 27.0802 28.36 27.0802 26.98C27.0802 26.12 27.2452 25.365 27.5752 24.715C27.9152 24.065 28.3952 23.565 29.0152 23.215C29.6352 22.865 30.3652 22.69 31.2052 22.69ZM31.2052 24.82C30.8252 24.82 30.5502 24.99 30.3802 25.33C30.2102 25.67 30.1252 26.22 30.1252 26.98C30.1252 27.77 30.2102 28.335 30.3802 28.675C30.5502 29.005 30.8252 29.17 31.2052 29.17C31.5852 29.17 31.8602 29 32.0302 28.66C32.2002 28.32 32.2852 27.77 32.2852 27.01C32.2852 26.22 32.2002 25.66 32.0302 25.33C31.8602 24.99 31.5852 24.82 31.2052 24.82Z" fill="black"/>
<path d="M41.075 22.735C41.335 22.735 41.605 22.78 41.885 22.87L41.42 25.735C41.15 25.655 40.905 25.615 40.685 25.615C40.245 25.615 39.915 25.76 39.695 26.05C39.485 26.34 39.315 26.775 39.185 27.355V31H36.215V22.99H38.81L39.05 24.49C39.22 23.96 39.49 23.535 39.86 23.215C40.23 22.895 40.635 22.735 41.075 22.735Z" fill="black"/>
</svg>
